<svg version="1.1" id="Layer_1" xmlns="http://www.w3.org/2000/svg" xmlns:xlink="http://www.w3.org/1999/xlink" x="0px" y="0px"
	 width="100%" viewBox="0 0 400 400" enable-background="new 0 0 400 400" xml:space="preserve">
<defs>
    <linearGradient id="tblGradient" x1="0%" y1="0%" x2="100%" y2="100%">
      <stop offset="0%" stop-color="#6f5bff"/>
      <stop offset="50%" stop-color="#4f9bff"/>
      <stop offset="100%" stop-color="#44d9d1"/>
    </linearGradient>
  </defs>
  <rect x="8" y="8" width="384" height="384" rx="64" fill="url(#tblGradient)"/>
<g transform="translate(0, -80)">
<path fill="#1a1a1a" opacity="1.000000" stroke="none" 
	d="
M124.653046,272.999878 
	C124.656136,256.673096 124.769485,240.845062 124.587524,225.020416 
	C124.540611,220.940933 125.776695,219.438293 129.964966,219.559189 
	C140.784515,219.871567 139.202362,218.766541 139.334503,228.956100 
	C139.405472,234.427231 139.347122,239.900070 139.347122,246.577454 
	C147.363388,240.250702 155.530106,237.866516 164.587646,240.897888 
	C170.647018,242.925842 175.245728,247.001251 178.920761,252.103134 
	C186.894470,263.172668 185.823730,280.755310 176.604065,291.603088 
	C167.562424,302.241425 157.490250,303.177979 140.285294,294.980103 
	C138.702667,298.744659 128.681854,301.327179 125.638321,298.713043 
	C124.329216,297.588623 124.691322,295.945282 124.682014,294.491089 
	C124.637207,287.494263 124.656708,280.497009 124.653046,272.999878 
M144.627167,256.034912 
	C139.859360,259.704346 139.258713,264.881683 139.334503,270.367004 
	C139.462708,279.644775 144.648361,285.943573 152.855606,286.641205 
	C160.457047,287.287354 166.795288,282.217529 168.299530,273.475433 
	C169.502518,266.484070 167.545685,260.137024 161.503098,255.859665 
	C156.285309,252.166153 150.708542,251.864120 144.627167,256.034912 
z"/>
<path fill="#1a1a1a" opacity="1.000000" stroke="none" 
	d="
M253.318710,299.105011 
	C243.337418,293.620453 240.059982,286.368744 242.664627,276.193756 
	C244.660095,268.398529 252.039581,263.220123 262.170532,262.739014 
	C267.474030,262.487152 272.804443,262.350494 277.962860,263.985291 
	C279.193512,258.346405 276.736298,254.621872 271.015442,253.491135 
	C265.442627,252.389664 260.119843,253.256165 255.172821,256.173370 
	C248.930481,259.854340 248.721878,252.909195 246.132233,250.651459 
	C243.522980,248.376617 246.724701,246.916611 248.344269,245.870773 
	C259.485291,238.676544 271.286285,237.153427 283.350128,243.081390 
	C290.452057,246.571167 294.209808,252.797943 294.294128,260.834747 
	C294.411285,271.998138 294.196503,283.165894 294.393463,294.327057 
	C294.464203,298.335632 292.872009,299.998718 289.107635,299.316803 
	C285.663666,298.692963 280.685303,301.854309 279.231934,295.149292 
	C271.392212,301.145630 262.755646,301.744415 253.318710,299.105011 
M275.946808,285.399628 
	C279.181427,282.881927 279.750519,279.252625 278.421143,275.953003 
	C277.243408,273.029816 273.750885,273.333405 270.943237,273.346893 
	C267.972961,273.361176 264.920868,272.871552 262.125366,274.382660 
	C258.930969,276.109344 256.735931,278.669373 257.534912,282.416016 
	C258.287354,285.944183 260.923157,288.093445 264.536255,288.601440 
	C268.463989,289.153656 272.154236,288.375580 275.946808,285.399628 
z"/>
<path fill="#1a1a1a" opacity="1.000000" stroke="none" 
	d="
M97.873314,224.694611 
	C101.002983,224.532593 102.479530,225.600250 102.304550,228.433472 
	C102.273903,228.929947 102.313454,229.430923 102.324303,229.929749 
	C102.537857,239.756897 102.531792,239.827438 112.212173,240.675034 
	C114.656380,240.889053 115.702705,241.861374 116.036537,244.259750 
	C117.196571,252.593872 116.050011,254.153275 107.451088,254.133926 
	C103.594490,254.125259 102.093536,255.340851 102.259262,259.314484 
	C102.522400,265.623871 102.321190,271.952271 102.333405,278.272583 
	C102.348511,286.086761 104.866318,288.021332 112.470154,286.101532 
	C113.253143,285.903809 114.054085,285.777191 115.153160,285.555878 
	C116.090599,289.058319 116.227455,292.457123 116.396904,295.873291 
	C116.505714,298.067108 115.056526,298.664734 113.506294,299.363190 
	C101.246414,304.886566 89.014122,298.019806 87.533867,284.781067 
	C86.606522,276.487274 87.140167,268.164612 87.116844,259.857880 
	C87.106094,256.030060 86.240280,253.744751 81.841919,254.168594 
	C78.922760,254.449921 77.562065,252.884048 77.698715,249.955368 
	C77.760651,248.627991 77.802559,247.284378 77.671379,245.966248 
	C77.295921,242.193604 78.700081,240.220825 82.718117,240.694229 
	C86.146278,241.098145 87.777130,239.749542 87.123825,236.168152 
	C87.064873,235.844986 87.096245,235.504303 87.095398,235.171722 
	C87.063416,222.590103 86.589653,224.902512 97.873314,224.694611 
z"/>
<path fill="#1a1a1a" opacity="1.000000" stroke="none" 
	d="
M192.684509,237.001511 
	C192.688980,232.170700 192.769913,227.837875 192.671051,223.509140 
	C192.608109,220.753433 193.770615,219.629089 196.514923,219.629547 
	C209.922485,219.631775 207.224350,218.811432 207.302429,229.487320 
	C207.457108,250.642227 207.207413,271.800629 207.449936,292.953888 
	C207.506424,297.880127 206.267029,300.227692 201.078461,299.395172 
	C200.103760,299.238770 199.071991,299.272125 198.085449,299.384247 
	C193.977570,299.851044 192.581375,298.098083 192.616867,293.972229 
	C192.778839,275.149750 192.686066,256.325104 192.684509,237.001511 
z"/>
<path fill="#1a1a1a" opacity="1.000000" stroke="none" 
	d="
M312.992859,240.687988 
	C320.302856,240.761734 320.320282,240.761719 320.324097,247.584473 
	C320.332764,263.047516 320.212097,278.511810 320.393494,293.972717 
	C320.441925,298.101624 319.053192,299.479645 314.935699,299.451172 
	C305.659363,299.386932 305.655151,299.566833 305.653290,290.440430 
	C305.650360,276.141266 305.644745,261.842102 305.654785,247.542938 
	C305.659515,240.782822 305.674744,240.782837 312.992859,240.687988 
z"/>
<path fill="#1a1a1a" opacity="1.000000" stroke="none" 
	d="
M313.800049,218.725739 
	C319.225525,220.383850 322.037689,224.153946 321.202423,228.603378 
	C320.422302,232.759293 318.232849,235.483566 313.452209,235.418228 
	C308.091064,235.344940 305.209045,233.434952 304.323425,228.899857 
	C303.190796,223.099808 306.618317,219.243988 313.800049,218.725739 
z"/>
</g>
</svg>