<svg version="1.1" id="Layer_1" xmlns="http://www.w3.org/2000/svg" xmlns:xlink="http://www.w3.org/1999/xlink" x="0px" y="0px"
	 width="100%" viewBox="0 0 400 400" enable-background="new 0 0 400 400" xml:space="preserve">
<defs>
    <linearGradient id="tblGradient" x1="0%" y1="0%" x2="100%" y2="100%">
      <stop offset="0%" stop-color="#6f5bff"/>
      <stop offset="50%" stop-color="#4f9bff"/>
      <stop offset="100%" stop-color="#44d9d1"/>
    </linearGradient>
  </defs>
  <rect x="8" y="8" width="384" height="384" rx="64" fill="url(#tblGradient)"/>
<path fill="#1a1a1a" opacity="1.000000" stroke="none" 
	d="
M237.008087,54.646179 
	C251.201782,58.141605 263.334900,64.164360 271.407227,76.463631 
	C272.639771,78.341576 274.223145,79.624176 276.114471,80.780571 
	C294.967133,92.307693 303.492462,109.075577 301.263763,131.117294 
	C300.822052,135.486069 298.993011,139.561188 296.337311,142.980560 
	C293.283295,146.912888 291.713593,151.365143 290.280273,155.975784 
	C285.993408,169.765442 276.826996,179.148758 263.690765,184.655334 
	C252.939499,189.162186 246.587173,198.178497 246.337738,210.053802 
	C246.265854,213.476654 247.090973,218.067108 241.958420,217.891296 
	C237.132919,217.725998 237.410980,213.117752 237.744461,209.774323 
	C239.211517,195.066086 244.453430,182.896469 259.325165,176.576889 
	C268.403534,172.719131 276.578156,167.277008 280.599670,157.209213 
	C277.898743,155.736786 275.803223,157.411682 273.654449,157.786133 
	C254.419601,161.138016 236.108124,154.031525 229.928452,136.081192 
	C226.566116,126.314522 229.232391,117.357117 234.585678,109.057022 
	C238.245865,103.382050 243.293610,99.002190 248.866058,95.253716 
	C251.360336,93.575867 254.299911,92.425644 256.443848,95.323883 
	C258.714050,98.392822 256.336060,100.258362 253.939545,102.211845 
	C250.468887,105.040886 247.134125,108.116302 244.156998,111.456985 
	C232.791321,124.210533 235.596283,138.943817 250.764557,147.004776 
	C263.876526,153.972931 282.169281,149.185379 289.528748,136.993942 
	C293.210419,130.895081 293.527008,124.172127 292.469849,117.628090 
	C290.888123,107.837036 285.512848,99.867981 277.493256,92.083145 
	C277.505890,99.934410 277.085907,106.696136 274.323761,112.948067 
	C271.334076,119.715057 267.728851,126.120415 260.804962,129.667389 
	C258.386841,130.906143 255.256851,132.718414 253.318741,129.269760 
	C251.605362,126.220924 252.906616,123.782074 256.106964,121.936218 
	C271.554840,113.026390 273.386780,85.603249 258.359497,74.588722 
	C247.768127,66.825569 236.597382,61.948044 223.370544,62.356537 
	C221.780289,62.405655 219.995255,61.870003 218.593109,63.520748 
	C218.470322,66.546806 221.197784,68.321877 222.132706,70.918282 
	C222.861237,72.941475 224.171371,74.755196 224.292175,76.997002 
	C224.417236,79.317589 224.071381,81.437279 221.413879,82.116646 
	C218.946198,82.747482 217.151413,81.802559 216.311890,79.356155 
	C213.397385,70.863098 207.026855,65.827385 199.280380,62.075993 
	C190.032516,57.597515 175.094574,59.693737 167.902344,66.746765 
	C172.421570,70.923927 176.489288,75.462044 179.260300,81.055901 
	C188.504883,99.718018 180.123291,120.818085 160.498398,127.780098 
	C154.986053,129.735641 149.571030,131.719360 144.804428,135.248093 
	C138.496918,139.917587 136.332397,146.198181 137.503662,153.685776 
	C138.045731,157.151184 140.225204,159.776474 143.496216,161.195297 
	C145.768524,162.180923 148.136536,162.996536 150.526825,163.650360 
	C158.775696,165.906693 160.117035,164.875763 160.715240,156.635513 
	C161.246216,149.321777 165.413757,144.190506 171.631882,140.981506 
	C176.783630,138.322830 182.322327,136.396118 187.740509,134.275162 
	C200.268372,129.371109 207.713623,116.655121 205.370132,103.525291 
	C204.777100,100.202774 204.300400,97.393265 208.579300,96.754494 
	C213.069550,96.084167 213.844223,99.410278 214.245621,102.654861 
	C216.534744,121.158714 207.620361,136.090561 190.229980,142.990128 
	C186.058044,144.645325 181.732910,145.955994 177.674423,147.846313 
	C170.839935,151.029678 168.084290,156.148239 169.544983,162.087265 
	C170.815811,167.254318 176.191467,170.760086 183.220688,170.750687 
	C191.088409,170.740189 198.884659,171.140427 206.094513,174.681335 
	C219.741623,181.383682 226.077026,193.641815 230.484055,207.282761 
	C231.185715,209.454651 230.552490,211.419937 228.225754,212.084381 
	C225.860031,212.759933 223.559402,212.535095 222.353104,209.799408 
	C220.607544,205.840698 218.922501,201.851059 217.038101,197.958633 
	C211.559631,186.642227 202.838974,180.190186 189.916595,180.250351 
	C180.969971,180.292007 172.163620,179.936859 165.501556,172.652649 
	C164.392960,171.440536 163.062012,172.117096 161.759644,172.183945 
	C140.185715,173.291046 122.299683,164.479111 107.689789,149.747543 
	C94.055145,135.999344 96.143082,107.328636 115.059631,96.767715 
	C118.104469,95.067818 119.759773,92.563133 121.303978,89.415390 
	C126.786087,78.240471 134.958206,69.838577 147.441605,66.484177 
	C151.474792,65.400421 155.133194,63.685020 158.609543,61.195087 
	C172.903641,50.956894 188.253601,47.263508 205.075867,54.727451 
	C207.465454,55.787697 209.814209,55.760376 212.369034,55.156761 
	C220.377640,53.264606 228.463242,52.861794 237.008087,54.646179 
M132.815964,87.243599 
	C132.137375,88.488426 130.661804,89.406975 131.214188,91.370018 
	C136.723434,92.226891 142.389725,92.682968 147.497513,95.322975 
	C150.835587,97.048302 153.957565,99.395943 151.897583,103.459564 
	C149.684265,107.825691 146.565842,104.815048 143.904602,103.365906 
	C135.903229,99.008888 122.500809,100.057854 115.741554,107.196800 
	C104.964142,118.579620 104.665710,133.951019 115.489151,145.260849 
	C119.006607,148.936356 122.748871,152.283325 128.249344,153.534271 
	C128.431046,151.995224 128.669205,151.020432 128.641342,150.053299 
	C128.349609,139.930252 133.285614,132.619125 141.109818,126.898865 
	C145.862061,123.424507 151.093948,120.683899 156.816147,119.449738 
	C169.930939,116.621132 177.540375,101.074326 172.725266,88.389687 
	C168.185730,76.430923 160.145966,69.595566 146.451828,76.209488 
	C141.252991,78.720398 137.010971,82.401611 132.815964,87.243599 
z"/>
<path fill="#1a1a1a" opacity="1.000000" stroke="none" 
	d="
M124.653046,272.999878 
	C124.656136,256.673096 124.769485,240.845062 124.587524,225.020416 
	C124.540611,220.940933 125.776695,219.438293 129.964966,219.559189 
	C140.784515,219.871567 139.202362,218.766541 139.334503,228.956100 
	C139.405472,234.427231 139.347122,239.900070 139.347122,246.577454 
	C147.363388,240.250702 155.530106,237.866516 164.587646,240.897888 
	C170.647018,242.925842 175.245728,247.001251 178.920761,252.103134 
	C186.894470,263.172668 185.823730,280.755310 176.604065,291.603088 
	C167.562424,302.241425 157.490250,303.177979 140.285294,294.980103 
	C138.702667,298.744659 128.681854,301.327179 125.638321,298.713043 
	C124.329216,297.588623 124.691322,295.945282 124.682014,294.491089 
	C124.637207,287.494263 124.656708,280.497009 124.653046,272.999878 
M144.627167,256.034912 
	C139.859360,259.704346 139.258713,264.881683 139.334503,270.367004 
	C139.462708,279.644775 144.648361,285.943573 152.855606,286.641205 
	C160.457047,287.287354 166.795288,282.217529 168.299530,273.475433 
	C169.502518,266.484070 167.545685,260.137024 161.503098,255.859665 
	C156.285309,252.166153 150.708542,251.864120 144.627167,256.034912 
z"/>
<path fill="#1a1a1a" opacity="1.000000" stroke="none" 
	d="
M253.318710,299.105011 
	C243.337418,293.620453 240.059982,286.368744 242.664627,276.193756 
	C244.660095,268.398529 252.039581,263.220123 262.170532,262.739014 
	C267.474030,262.487152 272.804443,262.350494 277.962860,263.985291 
	C279.193512,258.346405 276.736298,254.621872 271.015442,253.491135 
	C265.442627,252.389664 260.119843,253.256165 255.172821,256.173370 
	C248.930481,259.854340 248.721878,252.909195 246.132233,250.651459 
	C243.522980,248.376617 246.724701,246.916611 248.344269,245.870773 
	C259.485291,238.676544 271.286285,237.153427 283.350128,243.081390 
	C290.452057,246.571167 294.209808,252.797943 294.294128,260.834747 
	C294.411285,271.998138 294.196503,283.165894 294.393463,294.327057 
	C294.464203,298.335632 292.872009,299.998718 289.107635,299.316803 
	C285.663666,298.692963 280.685303,301.854309 279.231934,295.149292 
	C271.392212,301.145630 262.755646,301.744415 253.318710,299.105011 
M275.946808,285.399628 
	C279.181427,282.881927 279.750519,279.252625 278.421143,275.953003 
	C277.243408,273.029816 273.750885,273.333405 270.943237,273.346893 
	C267.972961,273.361176 264.920868,272.871552 262.125366,274.382660 
	C258.930969,276.109344 256.735931,278.669373 257.534912,282.416016 
	C258.287354,285.944183 260.923157,288.093445 264.536255,288.601440 
	C268.463989,289.153656 272.154236,288.375580 275.946808,285.399628 
z"/>
<path fill="#1a1a1a" opacity="1.000000" stroke="none" 
	d="
M97.873314,224.694611 
	C101.002983,224.532593 102.479530,225.600250 102.304550,228.433472 
	C102.273903,228.929947 102.313454,229.430923 102.324303,229.929749 
	C102.537857,239.756897 102.531792,239.827438 112.212173,240.675034 
	C114.656380,240.889053 115.702705,241.861374 116.036537,244.259750 
	C117.196571,252.593872 116.050011,254.153275 107.451088,254.133926 
	C103.594490,254.125259 102.093536,255.340851 102.259262,259.314484 
	C102.522400,265.623871 102.321190,271.952271 102.333405,278.272583 
	C102.348511,286.086761 104.866318,288.021332 112.470154,286.101532 
	C113.253143,285.903809 114.054085,285.777191 115.153160,285.555878 
	C116.090599,289.058319 116.227455,292.457123 116.396904,295.873291 
	C116.505714,298.067108 115.056526,298.664734 113.506294,299.363190 
	C101.246414,304.886566 89.014122,298.019806 87.533867,284.781067 
	C86.606522,276.487274 87.140167,268.164612 87.116844,259.857880 
	C87.106094,256.030060 86.240280,253.744751 81.841919,254.168594 
	C78.922760,254.449921 77.562065,252.884048 77.698715,249.955368 
	C77.760651,248.627991 77.802559,247.284378 77.671379,245.966248 
	C77.295921,242.193604 78.700081,240.220825 82.718117,240.694229 
	C86.146278,241.098145 87.777130,239.749542 87.123825,236.168152 
	C87.064873,235.844986 87.096245,235.504303 87.095398,235.171722 
	C87.063416,222.590103 86.589653,224.902512 97.873314,224.694611 
z"/>
<path fill="#1a1a1a" opacity="1.000000" stroke="none" 
	d="
M192.684509,237.001511 
	C192.688980,232.170700 192.769913,227.837875 192.671051,223.509140 
	C192.608109,220.753433 193.770615,219.629089 196.514923,219.629547 
	C209.922485,219.631775 207.224350,218.811432 207.302429,229.487320 
	C207.457108,250.642227 207.207413,271.800629 207.449936,292.953888 
	C207.506424,297.880127 206.267029,300.227692 201.078461,299.395172 
	C200.103760,299.238770 199.071991,299.272125 198.085449,299.384247 
	C193.977570,299.851044 192.581375,298.098083 192.616867,293.972229 
	C192.778839,275.149750 192.686066,256.325104 192.684509,237.001511 
z"/>
<path fill="#1a1a1a" opacity="1.000000" stroke="none" 
	d="
M312.992859,240.687988 
	C320.302856,240.761734 320.320282,240.761719 320.324097,247.584473 
	C320.332764,263.047516 320.212097,278.511810 320.393494,293.972717 
	C320.441925,298.101624 319.053192,299.479645 314.935699,299.451172 
	C305.659363,299.386932 305.655151,299.566833 305.653290,290.440430 
	C305.650360,276.141266 305.644745,261.842102 305.654785,247.542938 
	C305.659515,240.782822 305.674744,240.782837 312.992859,240.687988 
z"/>
<path fill="#1a1a1a" opacity="1.000000" stroke="none" 
	d="
M238.383804,171.650345 
	C242.165619,171.685608 245.567596,171.681061 247.508194,175.164124 
	C248.313721,176.609940 248.146271,178.093063 246.968506,179.301834 
	C244.250580,182.091354 240.981644,181.430313 237.647476,180.824036 
	C222.768509,178.118561 214.199173,167.226593 205.688721,156.271988 
	C204.242111,154.409943 204.573074,152.473892 206.402832,150.987732 
	C208.472183,149.306976 210.806061,149.106232 212.713150,151.035263 
	C214.801987,153.148087 216.594574,155.564514 218.426849,157.918213 
	C223.544678,164.492432 229.613678,169.683075 238.383804,171.650345 
z"/>
<path fill="#1a1a1a" opacity="1.000000" stroke="none" 
	d="
M313.800049,218.725739 
	C319.225525,220.383850 322.037689,224.153946 321.202423,228.603378 
	C320.422302,232.759293 318.232849,235.483566 313.452209,235.418228 
	C308.091064,235.344940 305.209045,233.434952 304.323425,228.899857 
	C303.190796,223.099808 306.618317,219.243988 313.800049,218.725739 
z"/>
</svg>