<svg xmlns="http://www.w3.org/2000/svg" viewBox="0 0 512 512" role="img" aria-labelledby="title desc">
  <title id="title">tbl ai logo</title>
  <desc id="desc">Minimal line illustration of a brain with the letters tbl ai beneath it.</desc>
  <g fill="none" stroke="#555" stroke-width="24" stroke-linecap="round" stroke-linejoin="round">
    <path d="M180 120c-40 0-72 32-72 72 0 40 32 72 72 72"/>
    <path d="M180 120c0-40 32-72 72-72s72 32 72 72"/>
    <path d="M324 120c40 0 72 32 72 72 0 40-32 72-72 72"/>
    <path d="M252 384c0-64 12-104 60-120"/>
    <path d="M252 384c0-64-12-104-60-120"/>
    <path d="M252 384v96"/>
    <path d="M204 168c20 0 36 16 36 36v24"/>
    <path d="M300 168c-20 0-36 16-36 36v24"/>
    <path d="M324 204c0 20-16 36-36 36"/>
    <path d="M180 240c20 0 36 16 36 36"/>
  </g>
  <g fill="#555">
    <path d="M128 446v-94h28v94h-28zm69-94c26 0 44 18 44 47 0 31-18 49-44 49s-44-18-44-49c0-29 18-47 44-47zm0 24c-10 0-17 8-17 23 0 16 7 24 17 24s17-8 17-24c0-15-7-23-17-23zm87-24v52c0 10 6 15 14 15 6 0 12-2 18-6v-61h28v94h-28v-6c-8 5-16 8-27 8-23 0-33-14-33-37v-59h28zm120 0c26 0 44 18 44 47 0 31-18 49-44 49s-44-18-44-49c0-29 18-47 44-47zm0 24c-10 0-17 8-17 23 0 16 7 24 17 24s17-8 17-24c0-15-7-23-17-23z"/>
  </g>
</svg>
